<?xml version="1.0" encoding="UTF-8" standalone="no"?>
<!-- Created with Inkscape (http://www.inkscape.org/) -->

<svg
   width="145.95599mm"
   height="91.498741mm"
   viewBox="0 0 145.956 91.498741"
   version="1.1"
   id="svg5"
   inkscape:version="1.2.2 (732a01da63, 2022-12-09)"
   sodipodi:docname="owlpine-logo.svg"
   xmlns:inkscape="http://www.inkscape.org/namespaces/inkscape"
   xmlns:sodipodi="http://sodipodi.sourceforge.net/DTD/sodipodi-0.dtd"
   xmlns="http://www.w3.org/2000/svg"
   xmlns:svg="http://www.w3.org/2000/svg">
  <sodipodi:namedview
     id="namedview7"
     pagecolor="#ffffff"
     bordercolor="#000000"
     borderopacity="0.25"
     inkscape:showpageshadow="2"
     inkscape:pageopacity="0"
     inkscape:pagecheckerboard="true"
     inkscape:deskcolor="#d1d1d1"
     inkscape:document-units="mm"
     showgrid="true"
     inkscape:zoom="1.0544998"
     inkscape:cx="336.65251"
     inkscape:cy="374.58519"
     inkscape:window-width="1920"
     inkscape:window-height="1017"
     inkscape:window-x="-8"
     inkscape:window-y="-8"
     inkscape:window-maximized="1"
     inkscape:current-layer="layer1"
     showborder="true">
    <inkscape:grid
       type="xygrid"
       id="grid476"
       originx="-0.99999957"
       originy="-1.0000004" />
  </sodipodi:namedview>
  <defs
     id="defs2" />
  <g
     inkscape:label="Layer 1"
     inkscape:groupmode="layer"
     id="layer1"
     transform="translate(-0.99999952,-1.0000004)">
    <path
       sodipodi:type="star"
       style="fill:#ffffff;stroke:#ffffff;stroke-width:0.529167;stroke-opacity:1"
       id="path234"
       inkscape:flatsided="true"
       sodipodi:sides="6"
       sodipodi:cx="26.612902"
       sodipodi:cy="81.258064"
       sodipodi:r1="11.354839"
       sodipodi:r2="9.8335791"
       sodipodi:arg1="0"
       sodipodi:arg2="0.52359878"
       inkscape:rounded="0.03"
       inkscape:randomized="0"
       d="m 37.967741,81.258064 c 0,0.340645 -5.382412,9.663257 -5.67742,9.83358 -0.295007,0.170322 -11.059832,0.170322 -11.354839,0 -0.295007,-0.170323 -5.67742,-9.492935 -5.67742,-9.83358 0,-0.340645 5.382413,-9.663256 5.67742,-9.833579 0.295007,-0.170323 11.059832,-0.170323 11.354839,0 0.295008,0.170323 5.67742,9.492934 5.67742,9.833579 z"
       transform="matrix(0,0.94669486,-0.97797384,0,163.84411,38.809966)"
       class="hexagon1"
       inkscape:transform-center-y="4.1491351e-06" />
    <path
       sodipodi:type="star"
       style="fill:#ffffff;stroke:#ffffff;stroke-width:0.529167;stroke-opacity:1"
       id="path234-2"
       inkscape:flatsided="true"
       sodipodi:sides="6"
       sodipodi:cx="26.612902"
       sodipodi:cy="81.258064"
       sodipodi:r1="11.354839"
       sodipodi:r2="9.8335791"
       sodipodi:arg1="0"
       sodipodi:arg2="0.52359878"
       inkscape:rounded="0.03"
       inkscape:randomized="0"
       d="m 37.967741,81.258064 c 0,0.340645 -5.382412,9.663257 -5.67742,9.83358 -0.295007,0.170322 -11.059832,0.170322 -11.354839,0 -0.295007,-0.170323 -5.67742,-9.492935 -5.67742,-9.83358 0,-0.340645 5.382413,-9.663256 5.67742,-9.833579 0.295007,-0.170323 11.059832,-0.170323 11.354839,0 0.295008,0.170323 5.67742,9.492934 5.67742,9.833579 z"
       transform="matrix(0,0.94669486,-0.97797384,0,184.84551,38.809966)"
       class="hexagon2"
       inkscape:transform-center-y="4.1491351e-06" />
    <path
       sodipodi:type="star"
       style="fill:#ffffff;stroke:#ffffff;stroke-width:0.529167;stroke-opacity:1"
       id="path234-2-2"
       inkscape:flatsided="true"
       sodipodi:sides="6"
       sodipodi:cx="26.612902"
       sodipodi:cy="81.258064"
       sodipodi:r1="11.354839"
       sodipodi:r2="9.8335791"
       sodipodi:arg1="0"
       sodipodi:arg2="0.52359878"
       inkscape:rounded="0.03"
       inkscape:randomized="0"
       d="m 37.967741,81.258064 c 0,0.340645 -5.382412,9.663257 -5.67742,9.83358 -0.295007,0.170322 -11.059832,0.170322 -11.354839,0 -0.295007,-0.170323 -5.67742,-9.492935 -5.67742,-9.83358 0,-0.340645 5.382413,-9.663256 5.67742,-9.833579 0.295007,-0.170323 11.059832,-0.170323 11.354839,0 0.295008,0.170323 5.67742,9.492934 5.67742,9.833579 z"
       transform="matrix(0,0.94669486,-0.97797384,0,205.84692,38.809966)"
       class="hexagon3"
       inkscape:transform-center-y="4.1491351e-06"
       inkscape:transform-center-x="-8.3808732e-06" />
    <path
       sodipodi:type="star"
       style="fill:#ffffff;stroke:#ffffff;stroke-width:0.529167;stroke-opacity:1"
       id="path234-3"
       inkscape:flatsided="true"
       sodipodi:sides="6"
       sodipodi:cx="26.612902"
       sodipodi:cy="81.258064"
       sodipodi:r1="11.354839"
       sodipodi:r2="9.8335791"
       sodipodi:arg1="0"
       sodipodi:arg2="0.52359878"
       inkscape:rounded="0.03"
       inkscape:randomized="0"
       d="m 37.967741,81.258064 c 0,0.340645 -5.382412,9.663257 -5.67742,9.83358 -0.295007,0.170322 -11.059832,0.170322 -11.354839,0 -0.295007,-0.170323 -5.67742,-9.492935 -5.67742,-9.83358 0,-0.340645 5.382413,-9.663256 5.67742,-9.833579 0.295007,-0.170323 11.059832,-0.170323 11.354839,0 0.295008,0.170323 5.67742,9.492934 5.67742,9.833579 z"
       transform="matrix(0,0.94669486,-0.97797384,0,100.83991,38.809966)"
       class="hexagon4"
       inkscape:transform-center-y="4.1491351e-06"
       inkscape:transform-center-x="-5.2795632e-06" />
    <path
       sodipodi:type="star"
       style="fill:#ffffff;stroke:#ffffff;stroke-width:0.529167;stroke-opacity:1"
       id="path234-2-7"
       inkscape:flatsided="true"
       sodipodi:sides="6"
       sodipodi:cx="26.612902"
       sodipodi:cy="81.258064"
       sodipodi:r1="11.354839"
       sodipodi:r2="9.8335791"
       sodipodi:arg1="0"
       sodipodi:arg2="0.52359878"
       inkscape:rounded="0.03"
       inkscape:randomized="0"
       d="m 37.967741,81.258064 c 0,0.340645 -5.382412,9.663257 -5.67742,9.83358 -0.295007,0.170322 -11.059832,0.170322 -11.354839,0 -0.295007,-0.170323 -5.67742,-9.492935 -5.67742,-9.83358 0,-0.340645 5.382413,-9.663256 5.67742,-9.833579 0.295007,-0.170323 11.059832,-0.170323 11.354839,0 0.295008,0.170323 5.67742,9.492934 5.67742,9.833579 z"
       transform="matrix(0,0.94669486,-0.97797384,0,121.84131,38.809966)"
       class="hexagon5"
       inkscape:transform-center-y="4.1491351e-06"
       inkscape:transform-center-x="-3.8998252e-06" />
    <path
       sodipodi:type="star"
       style="fill:#ffffff;stroke:#ffffff;stroke-width:0.529167;stroke-opacity:1"
       id="path234-2-2-8"
       inkscape:flatsided="true"
       sodipodi:sides="6"
       sodipodi:cx="26.612902"
       sodipodi:cy="81.258064"
       sodipodi:r1="11.354839"
       sodipodi:r2="9.8335791"
       sodipodi:arg1="0"
       sodipodi:arg2="0.52359878"
       inkscape:rounded="0.03"
       inkscape:randomized="0"
       d="m 37.967741,81.258064 c 0,0.340645 -5.382412,9.663257 -5.67742,9.83358 -0.295007,0.170322 -11.059832,0.170322 -11.354839,0 -0.295007,-0.170323 -5.67742,-9.492935 -5.67742,-9.83358 0,-0.340645 5.382413,-9.663256 5.67742,-9.833579 0.295007,-0.170323 11.059832,-0.170323 11.354839,0 0.295008,0.170323 5.67742,9.492934 5.67742,9.833579 z"
       transform="matrix(0,0.94669486,-0.97797384,0,142.84272,38.809966)"
       class="hexagon6"
       inkscape:transform-center-y="4.1491351e-06"
       inkscape:transform-center-x="-1.2520087e-05" />
    <path
       sodipodi:type="star"
       style="fill:#ffffff;stroke:#ffffff;stroke-width:0.529167;stroke-opacity:1"
       id="path234-2-2-89"
       inkscape:flatsided="true"
       sodipodi:sides="6"
       sodipodi:cx="26.612902"
       sodipodi:cy="81.258064"
       sodipodi:r1="11.354839"
       sodipodi:r2="9.8335791"
       sodipodi:arg1="0"
       sodipodi:arg2="0.52359878"
       inkscape:rounded="0.03"
       inkscape:randomized="0"
       d="m 37.967741,81.258064 c 0,0.340645 -5.382412,9.663257 -5.67742,9.83358 -0.295007,0.170322 -11.059832,0.170322 -11.354839,0 -0.295007,-0.170323 -5.67742,-9.492935 -5.67742,-9.83358 0,-0.340645 5.382413,-9.663256 5.67742,-9.833579 0.295007,-0.170323 11.059832,-0.170323 11.354839,0 0.295008,0.170323 5.67742,9.492934 5.67742,9.833579 z"
       transform="matrix(0,0.94663169,-0.97790858,0,153.36728,56.306813)"
       class="hexagon7"
       inkscape:transform-center-y="7.037574e-06"
       inkscape:transform-center-x="-8.6193206e-06" />
    <path
       sodipodi:type="star"
       style="fill:#ffffff;stroke:#ffffff;stroke-width:0.529167;stroke-opacity:1"
       id="path234-27"
       inkscape:flatsided="true"
       sodipodi:sides="6"
       sodipodi:cx="26.612902"
       sodipodi:cy="81.258064"
       sodipodi:r1="11.354839"
       sodipodi:r2="9.8335791"
       sodipodi:arg1="0"
       sodipodi:arg2="0.52359878"
       inkscape:rounded="0.03"
       inkscape:randomized="0"
       d="m 37.967741,81.258064 c 0,0.340645 -5.382412,9.663257 -5.67742,9.83358 -0.295007,0.170322 -11.059832,0.170322 -11.354839,0 -0.295007,-0.170323 -5.67742,-9.492935 -5.67742,-9.83358 0,-0.340645 5.382413,-9.663256 5.67742,-9.833579 0.295007,-0.170323 11.059832,-0.170323 11.354839,0 0.295008,0.170323 5.67742,9.492934 5.67742,9.833579 z"
       transform="matrix(0,0.94669486,-0.97797384,0,153.47313,21.418719)"
       class="hexagon8"
       inkscape:transform-center-y="4.1491351e-06" />
    <path
       sodipodi:type="star"
       style="fill:#ffffff;stroke:#ffffff;stroke-width:0.529167;stroke-opacity:1"
       id="path234-2-2-1"
       inkscape:flatsided="true"
       sodipodi:sides="6"
       sodipodi:cx="26.612902"
       sodipodi:cy="81.258064"
       sodipodi:r1="11.354839"
       sodipodi:r2="9.8335791"
       sodipodi:arg1="0"
       sodipodi:arg2="0.52359878"
       inkscape:rounded="0.03"
       inkscape:randomized="0"
       d="m 37.967741,81.258064 c 0,0.340645 -5.382412,9.663257 -5.67742,9.83358 -0.295007,0.170322 -11.059832,0.170322 -11.354839,0 -0.295007,-0.170323 -5.67742,-9.492935 -5.67742,-9.83358 0,-0.340645 5.382413,-9.663256 5.67742,-9.833579 0.295007,-0.170323 11.059832,-0.170323 11.354839,0 0.295008,0.170323 5.67742,9.492934 5.67742,9.833579 z"
       transform="matrix(0,0.94669486,-0.97797384,0,195.47594,21.418719)"
       class="hexagon9"
       inkscape:transform-center-y="4.1491351e-06"
       inkscape:transform-center-x="-8.3808732e-06" />
    <path
       sodipodi:type="star"
       style="fill:#ffffff;stroke:#ffffff;stroke-width:0.529167;stroke-opacity:1"
       id="path234-2-2-1-9"
       inkscape:flatsided="true"
       sodipodi:sides="6"
       sodipodi:cx="26.612902"
       sodipodi:cy="81.258064"
       sodipodi:r1="11.354839"
       sodipodi:r2="9.8335791"
       sodipodi:arg1="0"
       sodipodi:arg2="0.52359878"
       inkscape:rounded="0.03"
       inkscape:randomized="0"
       d="m 37.967741,81.258064 c 0,0.340645 -5.382412,9.663257 -5.67742,9.83358 -0.295007,0.170322 -11.059832,0.170322 -11.354839,0 -0.295007,-0.170323 -5.67742,-9.492935 -5.67742,-9.83358 0,-0.340645 5.382413,-9.663256 5.67742,-9.833579 0.295007,-0.170323 11.059832,-0.170323 11.354839,0 0.295008,0.170323 5.67742,9.492934 5.67742,9.833579 z"
       transform="matrix(0,0.94669486,-0.97797384,0,195.61055,-13.194249)"
       class="hexagon10"
       inkscape:transform-center-y="4.1491351e-06"
       inkscape:transform-center-x="-8.3808732e-06" />
    <path
       sodipodi:type="star"
       style="fill:#ffffff;stroke:#ffffff;stroke-width:0.529167;stroke-opacity:1"
       id="path234-3-2"
       inkscape:flatsided="true"
       sodipodi:sides="6"
       sodipodi:cx="26.612902"
       sodipodi:cy="81.258064"
       sodipodi:r1="11.354839"
       sodipodi:r2="9.8335791"
       sodipodi:arg1="0"
       sodipodi:arg2="0.52359878"
       inkscape:rounded="0.03"
       inkscape:randomized="0"
       d="m 37.967741,81.258064 c 0,0.340645 -5.382412,9.663257 -5.67742,9.83358 -0.295007,0.170322 -11.059832,0.170322 -11.354839,0 -0.295007,-0.170323 -5.67742,-9.492935 -5.67742,-9.83358 0,-0.340645 5.382413,-9.663256 5.67742,-9.833579 0.295007,-0.170323 11.059832,-0.170323 11.354839,0 0.295008,0.170323 5.67742,9.492934 5.67742,9.833579 z"
       transform="matrix(0,0.94669486,-0.97797384,0,90.468928,21.418719)"
       class="hexagon11"
       inkscape:transform-center-y="4.1491351e-06"
       inkscape:transform-center-x="-5.2795632e-06" />
    <path
       sodipodi:type="star"
       style="fill:#ffffff;stroke:#ffffff;stroke-width:0.529167;stroke-opacity:1"
       id="path234-2-7-5"
       inkscape:flatsided="true"
       sodipodi:sides="6"
       sodipodi:cx="26.612902"
       sodipodi:cy="81.258064"
       sodipodi:r1="11.354839"
       sodipodi:r2="9.8335791"
       sodipodi:arg1="0"
       sodipodi:arg2="0.52359878"
       inkscape:rounded="0.03"
       inkscape:randomized="0"
       d="m 37.967741,81.258064 c 0,0.340645 -5.382412,9.663257 -5.67742,9.83358 -0.295007,0.170322 -11.059832,0.170322 -11.354839,0 -0.295007,-0.170323 -5.67742,-9.492935 -5.67742,-9.83358 0,-0.340645 5.382413,-9.663256 5.67742,-9.833579 0.295007,-0.170323 11.059832,-0.170323 11.354839,0 0.295008,0.170323 5.67742,9.492934 5.67742,9.833579 z"
       transform="matrix(0,0.94669486,-0.97797384,0,111.47033,21.418719)"
       class="hexagon12"
       inkscape:transform-center-y="4.1491351e-06"
       inkscape:transform-center-x="-3.8998252e-06" />
    <path
       sodipodi:type="star"
       style="fill:#ffffff;stroke:#ffffff;stroke-width:0.529167;stroke-opacity:1"
       id="path234-2-2-1-5"
       inkscape:flatsided="true"
       sodipodi:sides="6"
       sodipodi:cx="26.612902"
       sodipodi:cy="81.258064"
       sodipodi:r1="11.354839"
       sodipodi:r2="9.8335791"
       sodipodi:arg1="0"
       sodipodi:arg2="0.52359878"
       inkscape:rounded="0.03"
       inkscape:randomized="0"
       d="m 37.967741,81.258064 c 0,0.340645 -5.382412,9.663257 -5.67742,9.83358 -0.295007,0.170322 -11.059832,0.170322 -11.354839,0 -0.295007,-0.170323 -5.67742,-9.492935 -5.67742,-9.83358 0,-0.340645 5.382413,-9.663256 5.67742,-9.833579 0.295007,-0.170323 11.059832,-0.170323 11.354839,0 0.295008,0.170323 5.67742,9.492934 5.67742,9.833579 z"
       transform="matrix(0,0.94669486,-0.97797384,0,216.42406,21.418719)"
       class="hexagon13"
       inkscape:transform-center-y="4.1491351e-06"
       inkscape:transform-center-x="-8.3808732e-06" />
    <path
       sodipodi:type="star"
       style="fill:#ffffff;stroke:#ffffff;stroke-width:0.529167;stroke-opacity:1"
       id="path234-4"
       inkscape:flatsided="true"
       sodipodi:sides="6"
       sodipodi:cx="26.612902"
       sodipodi:cy="81.258064"
       sodipodi:r1="11.354839"
       sodipodi:r2="9.8335791"
       sodipodi:arg1="0"
       sodipodi:arg2="0.52359878"
       inkscape:rounded="0.03"
       inkscape:randomized="0"
       d="m 37.967741,81.258064 c 0,0.340645 -5.382412,9.663257 -5.67742,9.83358 -0.295007,0.170322 -11.059832,0.170322 -11.354839,0 -0.295007,-0.170323 -5.67742,-9.492935 -5.67742,-9.83358 0,-0.340645 5.382413,-9.663256 5.67742,-9.833579 0.295007,-0.170323 11.059832,-0.170323 11.354839,0 0.295008,0.170323 5.67742,9.492934 5.67742,9.833579 z"
       transform="matrix(0,0.94669486,-0.97797384,0,163.95855,4.118458)"
       class="hexagon14"
       inkscape:transform-center-y="4.1491351e-06" />
    <path
       sodipodi:type="star"
       style="fill:#ffffff;stroke:#ffffff;stroke-width:0.529167;stroke-opacity:1"
       id="path234-2-75"
       inkscape:flatsided="true"
       sodipodi:sides="6"
       sodipodi:cx="26.612902"
       sodipodi:cy="81.258064"
       sodipodi:r1="11.354839"
       sodipodi:r2="9.8335791"
       sodipodi:arg1="0"
       sodipodi:arg2="0.52359878"
       inkscape:rounded="0.03"
       inkscape:randomized="0"
       d="m 37.967741,81.258064 c 0,0.340645 -5.382412,9.663257 -5.67742,9.83358 -0.295007,0.170322 -11.059832,0.170322 -11.354839,0 -0.295007,-0.170323 -5.67742,-9.492935 -5.67742,-9.83358 0,-0.340645 5.382413,-9.663256 5.67742,-9.833579 0.295007,-0.170323 11.059832,-0.170323 11.354839,0 0.295008,0.170323 5.67742,9.492934 5.67742,9.833579 z"
       transform="matrix(0,0.94669486,-0.97797384,0,184.95995,4.118458)"
       class="hexagon15"
       inkscape:transform-center-y="4.1491351e-06" />
    <path
       sodipodi:type="star"
       style="fill:#ffffff;stroke:#ffffff;stroke-width:0.529167;stroke-opacity:1"
       id="path234-2-2-7"
       inkscape:flatsided="true"
       sodipodi:sides="6"
       sodipodi:cx="26.612902"
       sodipodi:cy="81.258064"
       sodipodi:r1="11.354839"
       sodipodi:r2="9.8335791"
       sodipodi:arg1="0"
       sodipodi:arg2="0.52359878"
       inkscape:rounded="0.03"
       inkscape:randomized="0"
       d="m 37.967741,81.258064 c 0,0.340645 -5.382412,9.663257 -5.67742,9.83358 -0.295007,0.170322 -11.059832,0.170322 -11.354839,0 -0.295007,-0.170323 -5.67742,-9.492935 -5.67742,-9.83358 0,-0.340645 5.382413,-9.663256 5.67742,-9.833579 0.295007,-0.170323 11.059832,-0.170323 11.354839,0 0.295008,0.170323 5.67742,9.492934 5.67742,9.833579 z"
       transform="matrix(0,0.94669486,-0.97797384,0,205.96136,4.118458)"
       class="hexagon16"
       inkscape:transform-center-y="4.1491351e-06"
       inkscape:transform-center-x="-8.3808732e-06" />
    <path
       sodipodi:type="star"
       style="fill:#ffffff;stroke:#ffffff;stroke-width:0.529167;stroke-opacity:1"
       id="path234-3-0"
       inkscape:flatsided="true"
       sodipodi:sides="6"
       sodipodi:cx="26.612902"
       sodipodi:cy="81.258064"
       sodipodi:r1="11.354839"
       sodipodi:r2="9.8335791"
       sodipodi:arg1="0"
       sodipodi:arg2="0.52359878"
       inkscape:rounded="0.03"
       inkscape:randomized="0"
       d="m 37.967741,81.258064 c 0,0.340645 -5.382412,9.663257 -5.67742,9.83358 -0.295007,0.170322 -11.059832,0.170322 -11.354839,0 -0.295007,-0.170323 -5.67742,-9.492935 -5.67742,-9.83358 0,-0.340645 5.382413,-9.663256 5.67742,-9.833579 0.295007,-0.170323 11.059832,-0.170323 11.354839,0 0.295008,0.170323 5.67742,9.492934 5.67742,9.833579 z"
       transform="matrix(0,0.94669486,-0.97797384,0,100.95435,4.118458)"
       class="hexagon17"
       inkscape:transform-center-y="4.1491351e-06"
       inkscape:transform-center-x="-5.2795632e-06" />
    <path
       sodipodi:type="star"
       style="fill:#ffffff;stroke:#ffffff;stroke-width:0.529167;stroke-opacity:1"
       id="path234-2-7-1"
       inkscape:flatsided="true"
       sodipodi:sides="6"
       sodipodi:cx="26.612902"
       sodipodi:cy="81.258064"
       sodipodi:r1="11.354839"
       sodipodi:r2="9.8335791"
       sodipodi:arg1="0"
       sodipodi:arg2="0.52359878"
       inkscape:rounded="0.03"
       inkscape:randomized="0"
       d="m 37.967741,81.258064 c 0,0.340645 -5.382412,9.663257 -5.67742,9.83358 -0.295007,0.170322 -11.059832,0.170322 -11.354839,0 -0.295007,-0.170323 -5.67742,-9.492935 -5.67742,-9.83358 0,-0.340645 5.382413,-9.663256 5.67742,-9.833579 0.295007,-0.170323 11.059832,-0.170323 11.354839,0 0.295008,0.170323 5.67742,9.492934 5.67742,9.833579 z"
       transform="matrix(0,0.94669486,-0.97797384,0,121.95575,4.118458)"
       class="hexagon18"
       inkscape:transform-center-y="4.1491351e-06"
       inkscape:transform-center-x="-3.8998252e-06" />
    <path
       sodipodi:type="star"
       style="fill:#ffffff;stroke:#ffffff;stroke-width:0.529167;stroke-opacity:1"
       id="path234-2-2-8-8"
       inkscape:flatsided="true"
       sodipodi:sides="6"
       sodipodi:cx="26.612902"
       sodipodi:cy="81.258064"
       sodipodi:r1="11.354839"
       sodipodi:r2="9.8335791"
       sodipodi:arg1="0"
       sodipodi:arg2="0.52359878"
       inkscape:rounded="0.03"
       inkscape:randomized="0"
       d="m 37.967741,81.258064 c 0,0.340645 -5.382412,9.663257 -5.67742,9.83358 -0.295007,0.170322 -11.059832,0.170322 -11.354839,0 -0.295007,-0.170323 -5.67742,-9.492935 -5.67742,-9.83358 0,-0.340645 5.382413,-9.663256 5.67742,-9.833579 0.295007,-0.170323 11.059832,-0.170323 11.354839,0 0.295008,0.170323 5.67742,9.492934 5.67742,9.833579 z"
       transform="matrix(0,0.94669486,-0.97797384,0,142.95716,4.118458)"
       class="hexagon19"
       inkscape:transform-center-y="4.1491351e-06"
       inkscape:transform-center-x="-1.2520087e-05" />
    <path
       sodipodi:type="star"
       style="fill:#ffffff;stroke:#ffffff;stroke-width:0.529167;stroke-opacity:1"
       id="path234-2-7-5-7"
       inkscape:flatsided="true"
       sodipodi:sides="6"
       sodipodi:cx="26.612902"
       sodipodi:cy="81.258064"
       sodipodi:r1="11.354839"
       sodipodi:r2="9.8335791"
       sodipodi:arg1="0"
       sodipodi:arg2="0.52359878"
       inkscape:rounded="0.03"
       inkscape:randomized="0"
       d="m 37.967741,81.258064 c 0,0.340645 -5.382412,9.663257 -5.67742,9.83358 -0.295007,0.170322 -11.059832,0.170322 -11.354839,0 -0.295007,-0.170323 -5.67742,-9.492935 -5.67742,-9.83358 0,-0.340645 5.382413,-9.663256 5.67742,-9.833579 0.295007,-0.170323 11.059832,-0.170323 11.354839,0 0.295008,0.170323 5.67742,9.492934 5.67742,9.833579 z"
       transform="matrix(0,0.94669486,-0.97797384,0,111.55608,-13.194248)"
       class="hexagon20"
       inkscape:transform-center-y="4.1491351e-06"
       inkscape:transform-center-x="-3.8998252e-06" />
  </g>
</svg>
