<?xml version="1.0" encoding="UTF-8" standalone="no"?>
<svg
   xmlns:dc="http://purl.org/dc/elements/1.1/"
   xmlns:cc="http://creativecommons.org/ns#"
   xmlns:rdf="http://www.w3.org/1999/02/22-rdf-syntax-ns#"
   xmlns:svg="http://www.w3.org/2000/svg"
   xmlns="http://www.w3.org/2000/svg"
   xmlns:sodipodi="http://sodipodi.sourceforge.net/DTD/sodipodi-0.dtd"
   xmlns:inkscape="http://www.inkscape.org/namespaces/inkscape"
   width="145.95599mm"
   height="91.498741mm"
   viewBox="0 0 145.956 91.498741"
   version="1.1"
   id="svg5"
   inkscape:version="1.0.2-2 (e86c870879, 2021-01-15)"
   sodipodi:docname="owlpine-logo-black.svg"
   inkscape:export-xdpi="34.804897"
   inkscape:export-ydpi="34.804897">
  <metadata
     id="metadata27">
    <rdf:RDF>
      <cc:Work
         rdf:about="">
        <dc:format>image/svg+xml</dc:format>
        <dc:type
           rdf:resource="http://purl.org/dc/dcmitype/StillImage" />
        <dc:title></dc:title>
      </cc:Work>
    </rdf:RDF>
  </metadata>
  <sodipodi:namedview
     id="namedview7"
     pagecolor="#ffffff"
     bordercolor="#000000"
     borderopacity="0.25"
     inkscape:showpageshadow="2"
     inkscape:pageopacity="0"
     inkscape:pagecheckerboard="true"
     inkscape:deskcolor="#d1d1d1"
     inkscape:document-units="mm"
     showgrid="true"
     inkscape:zoom="1.0544998"
     inkscape:cx="174.96448"
     inkscape:cy="203.88814"
     inkscape:window-width="1440"
     inkscape:window-height="890"
     inkscape:window-x="-6"
     inkscape:window-y="-6"
     inkscape:window-maximized="1"
     inkscape:current-layer="layer1"
     showborder="true"
     inkscape:document-rotation="0">
    <inkscape:grid
       type="xygrid"
       id="grid476"
       originx="-0.99999957"
       originy="-1.0000004" />
  </sodipodi:namedview>
  <defs
     id="defs2">
    <filter
       style="color-interpolation-filters:sRGB;"
       inkscape:label="Invert"
       id="filter113">
      <feColorMatrix
         type="hueRotate"
         values="180"
         result="color1"
         id="feColorMatrix109" />
      <feColorMatrix
         values="-1 0 0 0 1 0 -1 0 0 1 0 0 -1 0 1 -0.21 -0.72 -0.07 2 0 "
         result="color2"
         id="feColorMatrix111" />
    </filter>
    <filter
       style="color-interpolation-filters:sRGB;"
       inkscape:label="Invert"
       id="filter119">
      <feColorMatrix
         type="hueRotate"
         values="180"
         result="color1"
         id="feColorMatrix115" />
      <feColorMatrix
         values="-1 0 0 0 1 0 -1 0 0 1 0 0 -1 0 1 -0.21 -0.72 -0.07 2 0 "
         result="color2"
         id="feColorMatrix117" />
    </filter>
    <filter
       style="color-interpolation-filters:sRGB;"
       inkscape:label="Invert"
       id="filter125">
      <feColorMatrix
         type="hueRotate"
         values="180"
         result="color1"
         id="feColorMatrix121" />
      <feColorMatrix
         values="-1 0 0 0 1 0 -1 0 0 1 0 0 -1 0 1 -0.21 -0.72 -0.07 2 0 "
         result="color2"
         id="feColorMatrix123" />
    </filter>
    <filter
       style="color-interpolation-filters:sRGB;"
       inkscape:label="Invert"
       id="filter131">
      <feColorMatrix
         type="hueRotate"
         values="180"
         result="color1"
         id="feColorMatrix127" />
      <feColorMatrix
         values="-1 0 0 0 1 0 -1 0 0 1 0 0 -1 0 1 -0.21 -0.72 -0.07 2 0 "
         result="color2"
         id="feColorMatrix129" />
    </filter>
    <filter
       style="color-interpolation-filters:sRGB;"
       inkscape:label="Invert"
       id="filter137">
      <feColorMatrix
         type="hueRotate"
         values="180"
         result="color1"
         id="feColorMatrix133" />
      <feColorMatrix
         values="-1 0 0 0 1 0 -1 0 0 1 0 0 -1 0 1 -0.21 -0.72 -0.07 2 0 "
         result="color2"
         id="feColorMatrix135" />
    </filter>
    <filter
       style="color-interpolation-filters:sRGB;"
       inkscape:label="Invert"
       id="filter143">
      <feColorMatrix
         type="hueRotate"
         values="180"
         result="color1"
         id="feColorMatrix139" />
      <feColorMatrix
         values="-1 0 0 0 1 0 -1 0 0 1 0 0 -1 0 1 -0.21 -0.72 -0.07 2 0 "
         result="color2"
         id="feColorMatrix141" />
    </filter>
    <filter
       style="color-interpolation-filters:sRGB;"
       inkscape:label="Invert"
       id="filter149">
      <feColorMatrix
         type="hueRotate"
         values="180"
         result="color1"
         id="feColorMatrix145" />
      <feColorMatrix
         values="-1 0 0 0 1 0 -1 0 0 1 0 0 -1 0 1 -0.21 -0.72 -0.07 2 0 "
         result="color2"
         id="feColorMatrix147" />
    </filter>
    <filter
       style="color-interpolation-filters:sRGB;"
       inkscape:label="Invert"
       id="filter155">
      <feColorMatrix
         type="hueRotate"
         values="180"
         result="color1"
         id="feColorMatrix151" />
      <feColorMatrix
         values="-1 0 0 0 1 0 -1 0 0 1 0 0 -1 0 1 -0.21 -0.72 -0.07 2 0 "
         result="color2"
         id="feColorMatrix153" />
    </filter>
    <filter
       style="color-interpolation-filters:sRGB;"
       inkscape:label="Invert"
       id="filter161">
      <feColorMatrix
         type="hueRotate"
         values="180"
         result="color1"
         id="feColorMatrix157" />
      <feColorMatrix
         values="-1 0 0 0 1 0 -1 0 0 1 0 0 -1 0 1 -0.21 -0.72 -0.07 2 0 "
         result="color2"
         id="feColorMatrix159" />
    </filter>
    <filter
       style="color-interpolation-filters:sRGB;"
       inkscape:label="Invert"
       id="filter167">
      <feColorMatrix
         type="hueRotate"
         values="180"
         result="color1"
         id="feColorMatrix163" />
      <feColorMatrix
         values="-1 0 0 0 1 0 -1 0 0 1 0 0 -1 0 1 -0.21 -0.72 -0.07 2 0 "
         result="color2"
         id="feColorMatrix165" />
    </filter>
    <filter
       style="color-interpolation-filters:sRGB;"
       inkscape:label="Invert"
       id="filter173">
      <feColorMatrix
         type="hueRotate"
         values="180"
         result="color1"
         id="feColorMatrix169" />
      <feColorMatrix
         values="-1 0 0 0 1 0 -1 0 0 1 0 0 -1 0 1 -0.21 -0.72 -0.07 2 0 "
         result="color2"
         id="feColorMatrix171" />
    </filter>
    <filter
       style="color-interpolation-filters:sRGB;"
       inkscape:label="Invert"
       id="filter179">
      <feColorMatrix
         type="hueRotate"
         values="180"
         result="color1"
         id="feColorMatrix175" />
      <feColorMatrix
         values="-1 0 0 0 1 0 -1 0 0 1 0 0 -1 0 1 -0.21 -0.72 -0.07 2 0 "
         result="color2"
         id="feColorMatrix177" />
    </filter>
    <filter
       style="color-interpolation-filters:sRGB;"
       inkscape:label="Invert"
       id="filter185">
      <feColorMatrix
         type="hueRotate"
         values="180"
         result="color1"
         id="feColorMatrix181" />
      <feColorMatrix
         values="-1 0 0 0 1 0 -1 0 0 1 0 0 -1 0 1 -0.21 -0.72 -0.07 2 0 "
         result="color2"
         id="feColorMatrix183" />
    </filter>
    <filter
       style="color-interpolation-filters:sRGB;"
       inkscape:label="Invert"
       id="filter191">
      <feColorMatrix
         type="hueRotate"
         values="180"
         result="color1"
         id="feColorMatrix187" />
      <feColorMatrix
         values="-1 0 0 0 1 0 -1 0 0 1 0 0 -1 0 1 -0.21 -0.72 -0.07 2 0 "
         result="color2"
         id="feColorMatrix189" />
    </filter>
    <filter
       style="color-interpolation-filters:sRGB;"
       inkscape:label="Invert"
       id="filter197">
      <feColorMatrix
         type="hueRotate"
         values="180"
         result="color1"
         id="feColorMatrix193" />
      <feColorMatrix
         values="-1 0 0 0 1 0 -1 0 0 1 0 0 -1 0 1 -0.21 -0.72 -0.07 2 0 "
         result="color2"
         id="feColorMatrix195" />
    </filter>
    <filter
       style="color-interpolation-filters:sRGB;"
       inkscape:label="Invert"
       id="filter203">
      <feColorMatrix
         type="hueRotate"
         values="180"
         result="color1"
         id="feColorMatrix199" />
      <feColorMatrix
         values="-1 0 0 0 1 0 -1 0 0 1 0 0 -1 0 1 -0.21 -0.72 -0.07 2 0 "
         result="color2"
         id="feColorMatrix201" />
    </filter>
    <filter
       style="color-interpolation-filters:sRGB;"
       inkscape:label="Invert"
       id="filter209">
      <feColorMatrix
         type="hueRotate"
         values="180"
         result="color1"
         id="feColorMatrix205" />
      <feColorMatrix
         values="-1 0 0 0 1 0 -1 0 0 1 0 0 -1 0 1 -0.21 -0.72 -0.07 2 0 "
         result="color2"
         id="feColorMatrix207" />
    </filter>
    <filter
       style="color-interpolation-filters:sRGB;"
       inkscape:label="Invert"
       id="filter215">
      <feColorMatrix
         type="hueRotate"
         values="180"
         result="color1"
         id="feColorMatrix211" />
      <feColorMatrix
         values="-1 0 0 0 1 0 -1 0 0 1 0 0 -1 0 1 -0.21 -0.72 -0.07 2 0 "
         result="color2"
         id="feColorMatrix213" />
    </filter>
    <filter
       style="color-interpolation-filters:sRGB;"
       inkscape:label="Invert"
       id="filter221">
      <feColorMatrix
         type="hueRotate"
         values="180"
         result="color1"
         id="feColorMatrix217" />
      <feColorMatrix
         values="-1 0 0 0 1 0 -1 0 0 1 0 0 -1 0 1 -0.21 -0.72 -0.07 2 0 "
         result="color2"
         id="feColorMatrix219" />
    </filter>
    <filter
       style="color-interpolation-filters:sRGB;"
       inkscape:label="Invert"
       id="filter227">
      <feColorMatrix
         type="hueRotate"
         values="180"
         result="color1"
         id="feColorMatrix223" />
      <feColorMatrix
         values="-1 0 0 0 1 0 -1 0 0 1 0 0 -1 0 1 -0.21 -0.72 -0.07 2 0 "
         result="color2"
         id="feColorMatrix225" />
    </filter>
  </defs>
  <g
     inkscape:label="Layer 1"
     inkscape:groupmode="layer"
     id="layer1"
     transform="translate(-0.99999952,-1.0000004)">
    <path
       sodipodi:type="star"
       style="fill:#ffffff;stroke:#ffffff;stroke-width:0.529167;stroke-opacity:1;filter:url(#filter113)"
       id="path234"
       inkscape:flatsided="true"
       sodipodi:sides="6"
       sodipodi:cx="26.612902"
       sodipodi:cy="81.258064"
       sodipodi:r1="11.354839"
       sodipodi:r2="9.8335791"
       sodipodi:arg1="0"
       sodipodi:arg2="0.52359878"
       inkscape:rounded="0.03"
       inkscape:randomized="0"
       d="m 37.967741,81.258064 c 0,0.340645 -5.382412,9.663257 -5.67742,9.83358 -0.295007,0.170322 -11.059832,0.170322 -11.354839,0 -0.295007,-0.170323 -5.67742,-9.492935 -5.67742,-9.83358 0,-0.340645 5.382413,-9.663256 5.67742,-9.833579 0.295007,-0.170323 11.059832,-0.170323 11.354839,0 0.295008,0.170323 5.67742,9.492934 5.67742,9.833579 z"
       transform="matrix(0,0.94669486,-0.97797384,0,163.84411,38.809966)"
       inkscape:transform-center-y="4.1491351e-06" />
    <path
       sodipodi:type="star"
       style="fill:#ffffff;stroke:#ffffff;stroke-width:0.529167;stroke-opacity:1;filter:url(#filter119)"
       id="path234-2"
       inkscape:flatsided="true"
       sodipodi:sides="6"
       sodipodi:cx="26.612902"
       sodipodi:cy="81.258064"
       sodipodi:r1="11.354839"
       sodipodi:r2="9.8335791"
       sodipodi:arg1="0"
       sodipodi:arg2="0.52359878"
       inkscape:rounded="0.03"
       inkscape:randomized="0"
       d="m 37.967741,81.258064 c 0,0.340645 -5.382412,9.663257 -5.67742,9.83358 -0.295007,0.170322 -11.059832,0.170322 -11.354839,0 -0.295007,-0.170323 -5.67742,-9.492935 -5.67742,-9.83358 0,-0.340645 5.382413,-9.663256 5.67742,-9.833579 0.295007,-0.170323 11.059832,-0.170323 11.354839,0 0.295008,0.170323 5.67742,9.492934 5.67742,9.833579 z"
       transform="matrix(0,0.94669486,-0.97797384,0,184.84551,38.809966)"
       inkscape:transform-center-y="4.1491351e-06" />
    <path
       sodipodi:type="star"
       style="fill:#ffffff;stroke:#ffffff;stroke-width:0.529167;stroke-opacity:1;filter:url(#filter125)"
       id="path234-2-2"
       inkscape:flatsided="true"
       sodipodi:sides="6"
       sodipodi:cx="26.612902"
       sodipodi:cy="81.258064"
       sodipodi:r1="11.354839"
       sodipodi:r2="9.8335791"
       sodipodi:arg1="0"
       sodipodi:arg2="0.52359878"
       inkscape:rounded="0.03"
       inkscape:randomized="0"
       d="m 37.967741,81.258064 c 0,0.340645 -5.382412,9.663257 -5.67742,9.83358 -0.295007,0.170322 -11.059832,0.170322 -11.354839,0 -0.295007,-0.170323 -5.67742,-9.492935 -5.67742,-9.83358 0,-0.340645 5.382413,-9.663256 5.67742,-9.833579 0.295007,-0.170323 11.059832,-0.170323 11.354839,0 0.295008,0.170323 5.67742,9.492934 5.67742,9.833579 z"
       transform="matrix(0,0.94669486,-0.97797384,0,205.84692,38.809966)"
       inkscape:transform-center-y="4.1491351e-06"
       inkscape:transform-center-x="-8.3808732e-06" />
    <path
       sodipodi:type="star"
       style="fill:#ffffff;stroke:#ffffff;stroke-width:0.529167;stroke-opacity:1;filter:url(#filter131)"
       id="path234-3"
       inkscape:flatsided="true"
       sodipodi:sides="6"
       sodipodi:cx="26.612902"
       sodipodi:cy="81.258064"
       sodipodi:r1="11.354839"
       sodipodi:r2="9.8335791"
       sodipodi:arg1="0"
       sodipodi:arg2="0.52359878"
       inkscape:rounded="0.03"
       inkscape:randomized="0"
       d="m 37.967741,81.258064 c 0,0.340645 -5.382412,9.663257 -5.67742,9.83358 -0.295007,0.170322 -11.059832,0.170322 -11.354839,0 -0.295007,-0.170323 -5.67742,-9.492935 -5.67742,-9.83358 0,-0.340645 5.382413,-9.663256 5.67742,-9.833579 0.295007,-0.170323 11.059832,-0.170323 11.354839,0 0.295008,0.170323 5.67742,9.492934 5.67742,9.833579 z"
       transform="matrix(0,0.94669486,-0.97797384,0,100.83991,38.809966)"
       inkscape:transform-center-y="4.1491351e-06"
       inkscape:transform-center-x="-5.2795632e-06" />
    <path
       sodipodi:type="star"
       style="fill:#ffffff;stroke:#ffffff;stroke-width:0.529167;stroke-opacity:1;filter:url(#filter137)"
       id="path234-2-7"
       inkscape:flatsided="true"
       sodipodi:sides="6"
       sodipodi:cx="26.612902"
       sodipodi:cy="81.258064"
       sodipodi:r1="11.354839"
       sodipodi:r2="9.8335791"
       sodipodi:arg1="0"
       sodipodi:arg2="0.52359878"
       inkscape:rounded="0.03"
       inkscape:randomized="0"
       d="m 37.967741,81.258064 c 0,0.340645 -5.382412,9.663257 -5.67742,9.83358 -0.295007,0.170322 -11.059832,0.170322 -11.354839,0 -0.295007,-0.170323 -5.67742,-9.492935 -5.67742,-9.83358 0,-0.340645 5.382413,-9.663256 5.67742,-9.833579 0.295007,-0.170323 11.059832,-0.170323 11.354839,0 0.295008,0.170323 5.67742,9.492934 5.67742,9.833579 z"
       transform="matrix(0,0.94669486,-0.97797384,0,121.84131,38.809966)"
       inkscape:transform-center-y="4.1491351e-06"
       inkscape:transform-center-x="-3.8998252e-06" />
    <path
       sodipodi:type="star"
       style="fill:#ffffff;stroke:#ffffff;stroke-width:0.529167;stroke-opacity:1;filter:url(#filter143)"
       id="path234-2-2-8"
       inkscape:flatsided="true"
       sodipodi:sides="6"
       sodipodi:cx="26.612902"
       sodipodi:cy="81.258064"
       sodipodi:r1="11.354839"
       sodipodi:r2="9.8335791"
       sodipodi:arg1="0"
       sodipodi:arg2="0.52359878"
       inkscape:rounded="0.03"
       inkscape:randomized="0"
       d="m 37.967741,81.258064 c 0,0.340645 -5.382412,9.663257 -5.67742,9.83358 -0.295007,0.170322 -11.059832,0.170322 -11.354839,0 -0.295007,-0.170323 -5.67742,-9.492935 -5.67742,-9.83358 0,-0.340645 5.382413,-9.663256 5.67742,-9.833579 0.295007,-0.170323 11.059832,-0.170323 11.354839,0 0.295008,0.170323 5.67742,9.492934 5.67742,9.833579 z"
       transform="matrix(0,0.94669486,-0.97797384,0,142.84272,38.809966)"
       inkscape:transform-center-y="4.1491351e-06"
       inkscape:transform-center-x="-1.2520087e-05" />
    <path
       sodipodi:type="star"
       style="fill:#ffffff;stroke:#ffffff;stroke-width:0.529167;stroke-opacity:1;filter:url(#filter149)"
       id="path234-2-2-89"
       inkscape:flatsided="true"
       sodipodi:sides="6"
       sodipodi:cx="26.612902"
       sodipodi:cy="81.258064"
       sodipodi:r1="11.354839"
       sodipodi:r2="9.8335791"
       sodipodi:arg1="0"
       sodipodi:arg2="0.52359878"
       inkscape:rounded="0.03"
       inkscape:randomized="0"
       d="m 37.967741,81.258064 c 0,0.340645 -5.382412,9.663257 -5.67742,9.83358 -0.295007,0.170322 -11.059832,0.170322 -11.354839,0 -0.295007,-0.170323 -5.67742,-9.492935 -5.67742,-9.83358 0,-0.340645 5.382413,-9.663256 5.67742,-9.833579 0.295007,-0.170323 11.059832,-0.170323 11.354839,0 0.295008,0.170323 5.67742,9.492934 5.67742,9.833579 z"
       transform="matrix(0,0.94663169,-0.97790858,0,153.36728,56.306813)"
       inkscape:transform-center-y="7.037574e-06"
       inkscape:transform-center-x="-8.6193206e-06" />
    <path
       sodipodi:type="star"
       style="fill:#ffffff;stroke:#ffffff;stroke-width:0.529167;stroke-opacity:1;filter:url(#filter155)"
       id="path234-27"
       inkscape:flatsided="true"
       sodipodi:sides="6"
       sodipodi:cx="26.612902"
       sodipodi:cy="81.258064"
       sodipodi:r1="11.354839"
       sodipodi:r2="9.8335791"
       sodipodi:arg1="0"
       sodipodi:arg2="0.52359878"
       inkscape:rounded="0.03"
       inkscape:randomized="0"
       d="m 37.967741,81.258064 c 0,0.340645 -5.382412,9.663257 -5.67742,9.83358 -0.295007,0.170322 -11.059832,0.170322 -11.354839,0 -0.295007,-0.170323 -5.67742,-9.492935 -5.67742,-9.83358 0,-0.340645 5.382413,-9.663256 5.67742,-9.833579 0.295007,-0.170323 11.059832,-0.170323 11.354839,0 0.295008,0.170323 5.67742,9.492934 5.67742,9.833579 z"
       transform="matrix(0,0.94669486,-0.97797384,0,153.47313,21.418719)"
       inkscape:transform-center-y="4.1491351e-06" />
    <path
       sodipodi:type="star"
       style="fill:#ffffff;stroke:#ffffff;stroke-width:0.529167;stroke-opacity:1;filter:url(#filter161)"
       id="path234-2-2-1"
       inkscape:flatsided="true"
       sodipodi:sides="6"
       sodipodi:cx="26.612902"
       sodipodi:cy="81.258064"
       sodipodi:r1="11.354839"
       sodipodi:r2="9.8335791"
       sodipodi:arg1="0"
       sodipodi:arg2="0.52359878"
       inkscape:rounded="0.03"
       inkscape:randomized="0"
       d="m 37.967741,81.258064 c 0,0.340645 -5.382412,9.663257 -5.67742,9.83358 -0.295007,0.170322 -11.059832,0.170322 -11.354839,0 -0.295007,-0.170323 -5.67742,-9.492935 -5.67742,-9.83358 0,-0.340645 5.382413,-9.663256 5.67742,-9.833579 0.295007,-0.170323 11.059832,-0.170323 11.354839,0 0.295008,0.170323 5.67742,9.492934 5.67742,9.833579 z"
       transform="matrix(0,0.94669486,-0.97797384,0,195.47594,21.418719)"
       inkscape:transform-center-y="4.1491351e-06"
       inkscape:transform-center-x="-8.3808732e-06" />
    <path
       sodipodi:type="star"
       style="fill:#ffffff;stroke:#ffffff;stroke-width:0.529167;stroke-opacity:1;filter:url(#filter167)"
       id="path234-2-2-1-9"
       inkscape:flatsided="true"
       sodipodi:sides="6"
       sodipodi:cx="26.612902"
       sodipodi:cy="81.258064"
       sodipodi:r1="11.354839"
       sodipodi:r2="9.8335791"
       sodipodi:arg1="0"
       sodipodi:arg2="0.52359878"
       inkscape:rounded="0.03"
       inkscape:randomized="0"
       d="m 37.967741,81.258064 c 0,0.340645 -5.382412,9.663257 -5.67742,9.83358 -0.295007,0.170322 -11.059832,0.170322 -11.354839,0 -0.295007,-0.170323 -5.67742,-9.492935 -5.67742,-9.83358 0,-0.340645 5.382413,-9.663256 5.67742,-9.833579 0.295007,-0.170323 11.059832,-0.170323 11.354839,0 0.295008,0.170323 5.67742,9.492934 5.67742,9.833579 z"
       transform="matrix(0,0.94669486,-0.97797384,0,195.61055,-13.194249)"
       inkscape:transform-center-y="4.1491351e-06"
       inkscape:transform-center-x="-8.3808732e-06" />
    <path
       sodipodi:type="star"
       style="fill:#ffffff;stroke:#ffffff;stroke-width:0.529167;stroke-opacity:1;filter:url(#filter173)"
       id="path234-3-2"
       inkscape:flatsided="true"
       sodipodi:sides="6"
       sodipodi:cx="26.612902"
       sodipodi:cy="81.258064"
       sodipodi:r1="11.354839"
       sodipodi:r2="9.8335791"
       sodipodi:arg1="0"
       sodipodi:arg2="0.52359878"
       inkscape:rounded="0.03"
       inkscape:randomized="0"
       d="m 37.967741,81.258064 c 0,0.340645 -5.382412,9.663257 -5.67742,9.83358 -0.295007,0.170322 -11.059832,0.170322 -11.354839,0 -0.295007,-0.170323 -5.67742,-9.492935 -5.67742,-9.83358 0,-0.340645 5.382413,-9.663256 5.67742,-9.833579 0.295007,-0.170323 11.059832,-0.170323 11.354839,0 0.295008,0.170323 5.67742,9.492934 5.67742,9.833579 z"
       transform="matrix(0,0.94669486,-0.97797384,0,90.468928,21.418719)"
       inkscape:transform-center-y="4.1491351e-06"
       inkscape:transform-center-x="-5.2795632e-06" />
    <path
       sodipodi:type="star"
       style="fill:#ffffff;stroke:#ffffff;stroke-width:0.529167;stroke-opacity:1;filter:url(#filter179)"
       id="path234-2-7-5"
       inkscape:flatsided="true"
       sodipodi:sides="6"
       sodipodi:cx="26.612902"
       sodipodi:cy="81.258064"
       sodipodi:r1="11.354839"
       sodipodi:r2="9.8335791"
       sodipodi:arg1="0"
       sodipodi:arg2="0.52359878"
       inkscape:rounded="0.03"
       inkscape:randomized="0"
       d="m 37.967741,81.258064 c 0,0.340645 -5.382412,9.663257 -5.67742,9.83358 -0.295007,0.170322 -11.059832,0.170322 -11.354839,0 -0.295007,-0.170323 -5.67742,-9.492935 -5.67742,-9.83358 0,-0.340645 5.382413,-9.663256 5.67742,-9.833579 0.295007,-0.170323 11.059832,-0.170323 11.354839,0 0.295008,0.170323 5.67742,9.492934 5.67742,9.833579 z"
       transform="matrix(0,0.94669486,-0.97797384,0,111.47033,21.418719)"
       inkscape:transform-center-y="4.1491351e-06"
       inkscape:transform-center-x="-3.8998252e-06" />
    <path
       sodipodi:type="star"
       style="fill:#ffffff;stroke:#ffffff;stroke-width:0.529167;stroke-opacity:1;filter:url(#filter185)"
       id="path234-2-2-1-5"
       inkscape:flatsided="true"
       sodipodi:sides="6"
       sodipodi:cx="26.612902"
       sodipodi:cy="81.258064"
       sodipodi:r1="11.354839"
       sodipodi:r2="9.8335791"
       sodipodi:arg1="0"
       sodipodi:arg2="0.52359878"
       inkscape:rounded="0.03"
       inkscape:randomized="0"
       d="m 37.967741,81.258064 c 0,0.340645 -5.382412,9.663257 -5.67742,9.83358 -0.295007,0.170322 -11.059832,0.170322 -11.354839,0 -0.295007,-0.170323 -5.67742,-9.492935 -5.67742,-9.83358 0,-0.340645 5.382413,-9.663256 5.67742,-9.833579 0.295007,-0.170323 11.059832,-0.170323 11.354839,0 0.295008,0.170323 5.67742,9.492934 5.67742,9.833579 z"
       transform="matrix(0,0.94669486,-0.97797384,0,216.42406,21.418719)"
       inkscape:transform-center-y="4.1491351e-06"
       inkscape:transform-center-x="-8.3808732e-06" />
    <path
       sodipodi:type="star"
       style="fill:#ffffff;stroke:#ffffff;stroke-width:0.529167;stroke-opacity:1;filter:url(#filter191)"
       id="path234-4"
       inkscape:flatsided="true"
       sodipodi:sides="6"
       sodipodi:cx="26.612902"
       sodipodi:cy="81.258064"
       sodipodi:r1="11.354839"
       sodipodi:r2="9.8335791"
       sodipodi:arg1="0"
       sodipodi:arg2="0.52359878"
       inkscape:rounded="0.03"
       inkscape:randomized="0"
       d="m 37.967741,81.258064 c 0,0.340645 -5.382412,9.663257 -5.67742,9.83358 -0.295007,0.170322 -11.059832,0.170322 -11.354839,0 -0.295007,-0.170323 -5.67742,-9.492935 -5.67742,-9.83358 0,-0.340645 5.382413,-9.663256 5.67742,-9.833579 0.295007,-0.170323 11.059832,-0.170323 11.354839,0 0.295008,0.170323 5.67742,9.492934 5.67742,9.833579 z"
       transform="matrix(0,0.94669486,-0.97797384,0,163.95855,4.118458)"
       inkscape:transform-center-y="4.1491351e-06" />
    <path
       sodipodi:type="star"
       style="fill:#ffffff;stroke:#ffffff;stroke-width:0.529167;stroke-opacity:1;filter:url(#filter197)"
       id="path234-2-75"
       inkscape:flatsided="true"
       sodipodi:sides="6"
       sodipodi:cx="26.612902"
       sodipodi:cy="81.258064"
       sodipodi:r1="11.354839"
       sodipodi:r2="9.8335791"
       sodipodi:arg1="0"
       sodipodi:arg2="0.52359878"
       inkscape:rounded="0.03"
       inkscape:randomized="0"
       d="m 37.967741,81.258064 c 0,0.340645 -5.382412,9.663257 -5.67742,9.83358 -0.295007,0.170322 -11.059832,0.170322 -11.354839,0 -0.295007,-0.170323 -5.67742,-9.492935 -5.67742,-9.83358 0,-0.340645 5.382413,-9.663256 5.67742,-9.833579 0.295007,-0.170323 11.059832,-0.170323 11.354839,0 0.295008,0.170323 5.67742,9.492934 5.67742,9.833579 z"
       transform="matrix(0,0.94669486,-0.97797384,0,184.95995,4.118458)"
       inkscape:transform-center-y="4.1491351e-06" />
    <path
       sodipodi:type="star"
       style="fill:#ffffff;stroke:#ffffff;stroke-width:0.529167;stroke-opacity:1;filter:url(#filter203)"
       id="path234-2-2-7"
       inkscape:flatsided="true"
       sodipodi:sides="6"
       sodipodi:cx="26.612902"
       sodipodi:cy="81.258064"
       sodipodi:r1="11.354839"
       sodipodi:r2="9.8335791"
       sodipodi:arg1="0"
       sodipodi:arg2="0.52359878"
       inkscape:rounded="0.03"
       inkscape:randomized="0"
       d="m 37.967741,81.258064 c 0,0.340645 -5.382412,9.663257 -5.67742,9.83358 -0.295007,0.170322 -11.059832,0.170322 -11.354839,0 -0.295007,-0.170323 -5.67742,-9.492935 -5.67742,-9.83358 0,-0.340645 5.382413,-9.663256 5.67742,-9.833579 0.295007,-0.170323 11.059832,-0.170323 11.354839,0 0.295008,0.170323 5.67742,9.492934 5.67742,9.833579 z"
       transform="matrix(0,0.94669486,-0.97797384,0,205.96136,4.118458)"
       inkscape:transform-center-y="4.1491351e-06"
       inkscape:transform-center-x="-8.3808732e-06" />
    <path
       sodipodi:type="star"
       style="fill:#ffffff;stroke:#ffffff;stroke-width:0.529167;stroke-opacity:1;filter:url(#filter209)"
       id="path234-3-0"
       inkscape:flatsided="true"
       sodipodi:sides="6"
       sodipodi:cx="26.612902"
       sodipodi:cy="81.258064"
       sodipodi:r1="11.354839"
       sodipodi:r2="9.8335791"
       sodipodi:arg1="0"
       sodipodi:arg2="0.52359878"
       inkscape:rounded="0.03"
       inkscape:randomized="0"
       d="m 37.967741,81.258064 c 0,0.340645 -5.382412,9.663257 -5.67742,9.83358 -0.295007,0.170322 -11.059832,0.170322 -11.354839,0 -0.295007,-0.170323 -5.67742,-9.492935 -5.67742,-9.83358 0,-0.340645 5.382413,-9.663256 5.67742,-9.833579 0.295007,-0.170323 11.059832,-0.170323 11.354839,0 0.295008,0.170323 5.67742,9.492934 5.67742,9.833579 z"
       transform="matrix(0,0.94669486,-0.97797384,0,100.95435,4.118458)"
       inkscape:transform-center-y="4.1491351e-06"
       inkscape:transform-center-x="-5.2795632e-06" />
    <path
       sodipodi:type="star"
       style="fill:#ffffff;stroke:#ffffff;stroke-width:0.529167;stroke-opacity:1;filter:url(#filter215)"
       id="path234-2-7-1"
       inkscape:flatsided="true"
       sodipodi:sides="6"
       sodipodi:cx="26.612902"
       sodipodi:cy="81.258064"
       sodipodi:r1="11.354839"
       sodipodi:r2="9.8335791"
       sodipodi:arg1="0"
       sodipodi:arg2="0.52359878"
       inkscape:rounded="0.03"
       inkscape:randomized="0"
       d="m 37.967741,81.258064 c 0,0.340645 -5.382412,9.663257 -5.67742,9.83358 -0.295007,0.170322 -11.059832,0.170322 -11.354839,0 -0.295007,-0.170323 -5.67742,-9.492935 -5.67742,-9.83358 0,-0.340645 5.382413,-9.663256 5.67742,-9.833579 0.295007,-0.170323 11.059832,-0.170323 11.354839,0 0.295008,0.170323 5.67742,9.492934 5.67742,9.833579 z"
       transform="matrix(0,0.94669486,-0.97797384,0,121.95575,4.118458)"
       inkscape:transform-center-y="4.1491351e-06"
       inkscape:transform-center-x="-3.8998252e-06" />
    <path
       sodipodi:type="star"
       style="fill:#ffffff;stroke:#ffffff;stroke-width:0.529167;stroke-opacity:1;filter:url(#filter221)"
       id="path234-2-2-8-8"
       inkscape:flatsided="true"
       sodipodi:sides="6"
       sodipodi:cx="26.612902"
       sodipodi:cy="81.258064"
       sodipodi:r1="11.354839"
       sodipodi:r2="9.8335791"
       sodipodi:arg1="0"
       sodipodi:arg2="0.52359878"
       inkscape:rounded="0.03"
       inkscape:randomized="0"
       d="m 37.967741,81.258064 c 0,0.340645 -5.382412,9.663257 -5.67742,9.83358 -0.295007,0.170322 -11.059832,0.170322 -11.354839,0 -0.295007,-0.170323 -5.67742,-9.492935 -5.67742,-9.83358 0,-0.340645 5.382413,-9.663256 5.67742,-9.833579 0.295007,-0.170323 11.059832,-0.170323 11.354839,0 0.295008,0.170323 5.67742,9.492934 5.67742,9.833579 z"
       transform="matrix(0,0.94669486,-0.97797384,0,142.95716,4.118458)"
       inkscape:transform-center-y="4.1491351e-06"
       inkscape:transform-center-x="-1.2520087e-05" />
    <path
       sodipodi:type="star"
       style="fill:#ffffff;stroke:#ffffff;stroke-width:0.529167;stroke-opacity:1;filter:url(#filter227)"
       id="path234-2-7-5-7"
       inkscape:flatsided="true"
       sodipodi:sides="6"
       sodipodi:cx="26.612902"
       sodipodi:cy="81.258064"
       sodipodi:r1="11.354839"
       sodipodi:r2="9.8335791"
       sodipodi:arg1="0"
       sodipodi:arg2="0.52359878"
       inkscape:rounded="0.03"
       inkscape:randomized="0"
       d="m 37.967741,81.258064 c 0,0.340645 -5.382412,9.663257 -5.67742,9.83358 -0.295007,0.170322 -11.059832,0.170322 -11.354839,0 -0.295007,-0.170323 -5.67742,-9.492935 -5.67742,-9.83358 0,-0.340645 5.382413,-9.663256 5.67742,-9.833579 0.295007,-0.170323 11.059832,-0.170323 11.354839,0 0.295008,0.170323 5.67742,9.492934 5.67742,9.833579 z"
       transform="matrix(0,0.94669486,-0.97797384,0,111.55608,-13.194248)"
       inkscape:transform-center-y="4.1491351e-06"
       inkscape:transform-center-x="-3.8998252e-06" />
  </g>
</svg>
